<mxfile host="app.diagrams.net" modified="2023-10-25T16:10:51.451Z" agent="Mozilla/5.0 (Windows NT 10.0; Win64; x64) AppleWebKit/537.36 (KHTML, like Gecko) Chrome/118.0.0.0 Safari/537.36" version="22.0.8" etag="ilBpoz8PG8t_fN6HRQDT" type="github">
  <diagram name="Страница — 1" id="drVGssglDmFvdDAjJI7i">
    <mxGraphModel>
      <root>
        <mxCell id="0" />
        <mxCell id="1" parent="0" />
      </root>
    </mxGraphModel>
  </diagram>
</mxfile>
